<svg xmlns="http://www.w3.org/2000/svg" width="100" height="102" viewBox="0 0 100 102" fill="none">
    <path
        d="M49.5352 50.9995L12.2612 92.9327V82.1429L29.4269 50.9995H10.0542V46.8307C10.0542 44.1221 12.25 41.9263 14.9587 41.9263H84.1117C86.8203 41.9263 89.0161 44.1221 89.0161 46.8307V50.9995H69.6435L86.8091 82.1429V92.9327L49.5352 50.9995Z"
        fill="white" />
    <path d="M49.5352 93.9132L12.2612 101.515L49.5352 62.0342L86.8092 101.638L49.5352 93.9132Z"
        fill="white" />
    <path
        d="M93.6752 14.4608L83.1306 35.55H15.9394L5.39478 14.4608L29.4267 28.1933L49.535 6.85889L69.6433 28.1933L93.6752 14.4608Z"
        fill="white" />
    <circle cx="49.6574" cy="5.5102" r="5.51753" fill="white" />
    <circle cx="93.7978" cy="14.5839" r="5.51753" fill="white" />
    <circle cx="5.51753" cy="14.5839" r="5.51753" fill="white" />
</svg>