<svg xmlns="http://www.w3.org/2000/svg" width="95" height="96" viewBox="0 0 46 48" fill="none">
    <path class="color"
        d="M22.7913 23.9862L5.64143 43.2798V38.3154L13.5394 23.9862H4.62598V22.0681C4.62598 20.8218 5.63627 19.8115 6.88254 19.8115H38.7001C39.9464 19.8115 40.9567 20.8218 40.9567 22.0681V23.9862H32.0432L39.9412 38.3154V43.2798L22.7913 23.9862Z"
        fill="#611374" />
    <path class="color"
        d="M22.7915 43.7307L5.6416 47.2283L22.7915 29.063L39.9414 47.2847L22.7915 43.7307Z"
        fill="#611374" />
    <path class="color"
        d="M43.1001 7.17443L38.2485 16.8777H7.33355L2.48193 7.17443L13.5391 13.4928L22.791 3.67676L32.0429 13.4928L43.1001 7.17443Z"
        fill="#611374" />
    <circle cx="22.8477" cy="3.05621" r="2.53864" fill="#611374" />
    <circle cx="43.1568" cy="7.23102" r="2.53864" fill="#611374" />
    <circle cx="2.53864" cy="7.23102" r="2.53864" fill="#611374" />
</svg>