<svg width="22" height="23" viewBox="0 0 22 23" fill="none" xmlns="http://www.w3.org/2000/svg">
<path d="M15.6875 20.375H16.8125V17.5625H19.625V16.4375H16.8125V13.625H15.6875V16.4375H12.875V17.5625H15.6875V20.375ZM16.25 22.625C14.6938 22.625 13.3672 22.0766 12.2703 20.9797C11.1734 19.8828 10.625 18.5562 10.625 17C10.625 15.4438 11.1734 14.1172 12.2703 13.0203C13.3672 11.9234 14.6938 11.375 16.25 11.375C17.8062 11.375 19.1328 11.9234 20.2297 13.0203C21.3266 14.1172 21.875 15.4438 21.875 17C21.875 18.5562 21.3266 19.8828 20.2297 20.9797C19.1328 22.0766 17.8062 22.625 16.25 22.625ZM0.5 20.375V6.875L9.5 0.125L18.5 6.875V9.4625C18.1437 9.35 17.7781 9.26562 17.4031 9.20937C17.0281 9.15312 16.6437 9.125 16.25 9.125V8L9.5 2.9375L2.75 8V18.125H8.45938C8.51562 18.5187 8.6 18.9031 8.7125 19.2781C8.825 19.6531 8.96562 20.0187 9.13438 20.375H0.5Z" fill="#611374"/>
</svg>
